<svg width="12" height="16" viewBox="0 0 12 16" fill="none" xmlns="http://www.w3.org/2000/svg">
<path d="M5.27875 0C4.57544 0 4.81195 1.50311 4.81195 1.50311C4.81195 1.50311 3.30884 5.64834 1.87108 6.75311C1.56299 7.07676 1.37004 7.43465 1.24867 7.72718C1.22066 7.79876 1.19577 7.86722 1.17398 7.92946C1.07751 8.12552 0.872116 8.42739 0.433319 8.69191L1.87108 14.944C1.87108 14.944 4.09618 15.2334 6.32751 15.1867C7.22066 15.2583 8.16672 15.2645 8.91983 15.1027C11.4779 14.5581 10.8368 12.7749 10.8368 12.7749C12.2155 11.7386 11.4312 10.444 11.4312 10.444C12.6574 9.16494 11.453 8.09129 11.453 8.09129C11.453 8.09129 12.1159 7.05809 11.2601 6.27697C10.1927 5.29979 7.29535 5.95021 7.29535 5.95021C7.09307 5.98444 6.87834 6.02801 6.64805 6.08402C6.64805 6.08402 5.64597 6.55083 6.64805 3.51037C7.65324 0.469917 5.98207 0 5.27875 0Z" fill="#A7A7A7"/>
</svg>
