<svg width="12" height="15" viewBox="0 0 12 15" fill="none" xmlns="http://www.w3.org/2000/svg">
<path d="M5.27875 0C4.57544 0 4.81195 1.47857 4.81195 1.47857C4.81195 1.47857 3.30884 5.55612 1.87108 6.64286C1.56299 6.96122 1.37004 7.31327 1.24867 7.60102C1.22066 7.67143 1.19577 7.73878 1.17398 7.8C1.07751 7.99286 0.872116 8.2898 0.433319 8.55L1.87108 14.7C1.87108 14.7 4.09618 14.9847 6.32751 14.9388C7.22066 15.0092 8.16672 15.0153 8.91983 14.8561C11.4779 14.3204 10.8368 12.5663 10.8368 12.5663C12.2155 11.5469 11.4312 10.2735 11.4312 10.2735C12.6574 9.01531 11.453 7.95918 11.453 7.95918C11.453 7.95918 12.1159 6.94286 11.2601 6.17449C10.1927 5.21327 7.29535 5.85306 7.29535 5.85306C7.09307 5.88673 6.87834 5.92959 6.64805 5.98469C6.64805 5.98469 5.64597 6.44388 6.64805 3.45306C7.65324 0.462245 5.98207 0 5.27875 0Z" fill="#7ED321"/>
</svg>
